<?xml version="1.0" encoding="utf-8"?>
<!-- Generator: Adobe Illustrator 23.0.3, SVG Export Plug-In . SVG Version: 6.00 Build 0)  -->
<svg version="1.1" id="Layer_1" xmlns="http://www.w3.org/2000/svg" xmlns:xlink="http://www.w3.org/1999/xlink" x="0px" y="0px"
	 viewBox="0 0 20 19.9" style="enable-background:new 0 0 20 19.9;" xml:space="preserve">
<style type="text/css">
	.st0{fill:#555966;}
	.st1{fill:none;}
	.st2{fill:#4E8DE5;}
</style>
<g>
	<path class="st0" d="M-193,0.1l-6.2,20h-4.5l-3.6-13.4l-3.6,13.4h-4.5l-6.2-20h4.3l4,15l3.9-15h4l3.9,15l4-15H-193z"/>
	<path class="st0" d="M-154.1,20.1l-3.9-7h-4.2v7h-3.8v-20h7.7c4.2,0,7.5,1.7,7.5,6.5c0,3-1.3,4.8-3.3,5.7l4.5,7.8L-154.1,20.1z
		 M-162.3,9.5h3.9c3,0,3.6-1.4,3.6-2.9c0-1.5-0.6-2.9-3.6-2.9h-3.9V9.5z"/>
	<path class="st0" d="M-140.5,12.1l-1.5,1.9v6.1h-3.8v-20h3.8v8.6l6.8-8.6h4.5l-7.5,9.1l8.8,10.8h-4.7L-140.5,12.1z"/>
	<path class="st0" d="M-110.7,6.6c0,4.8-3.3,6.5-7.5,6.5h-3.9v7h-3.8v-20h7.7C-114,0.1-110.7,1.8-110.7,6.6z M-114.5,6.6
		c0-1.5-0.6-2.9-3.6-2.9h-3.9v5.9h3.9C-115.1,9.5-114.5,8.1-114.5,6.6z"/>
	<path class="st0" d="M-93.5,16.5v3.6h-13v-20h3.8v16.4H-93.5z"/>
	<path class="st0" d="M-77.3,16.1h-8.6l-1.5,4h-4.1l7.9-20h3.9l7.9,20h-4.1L-77.3,16.1z M-78.5,12.5l-3-8.2l-3,8.2H-78.5z"/>
	<path class="st0" d="M-51.4,0.1v20h-3.8l-9-13.5v13.5H-68v-20h3.8l9,13.5V0.1H-51.4z"/>
	<path class="st1" d="M-179.8,16.1L-179.8,16.1c3.5,0,6.2-2.8,6.1-6.2s-2.8-6.1-6.2-6c-3.3,0-6,2.8-6,6.1V10h6.1V16.1z"/>
	<path class="st0" d="M-179.8,0c-5.5,0-10,4.4-10,10V10h3.9V10c0-3.4,2.7-6.2,6.1-6.2c3.4,0,6.2,2.7,6.2,6.1c0,3.4-2.7,6.2-6.1,6.2
		c0,0,0,0,0,0h-0.1v3.8h0.1c5.5,0,10-4.5,10-10S-174.2,0-179.8,0L-179.8,0L-179.8,0z"/>
</g>
<g>
	<path class="st1" d="M10,16.1L10,16.1c3.5,0,6.2-2.8,6.1-6.2s-2.8-6.1-6.2-6c-3.3,0-6,2.8-6,6.1V10H10V16.1z"/>
	<path class="st2" d="M10,0C4.5,0,0,4.4,0,10V10h3.9V10c0-3.4,2.7-6.2,6.1-6.2c3.4,0,6.2,2.7,6.2,6.1c0,3.4-2.7,6.2-6.1,6.2
		c0,0,0,0,0,0H10v3.8H10c5.5,0,10-4.5,10-10S15.6,0,10,0L10,0L10,0z"/>
</g>
</svg>
