<svg xmlns="http://www.w3.org/2000/svg" width="170" height="20" viewBox="0 0 170 20"><g><path d="M28.617.1,22.461,20.084H18.009l-3.6-13.413-3.6,13.413H6.356L.2.1H4.54l4,15.04L12.415.1h3.97l3.89,15.04L24.245.1h4.372Z" fill="#ffffff"/><path d="M356.81,20.084l-3.89-7h-4.227v7H344.9V.1h7.651c4.179,0,7.474,1.691,7.474,6.475,0,3-1.3,4.8-3.279,5.71l4.517,7.8ZM348.693,9.526h3.858c3.022,0,3.632-1.4,3.632-2.935,0-1.515-.611-2.919-3.632-2.919h-3.858Z" transform="translate(-289.356)" fill="#ffffff"/><path d="M476.22,12.062l-1.527,1.882v6.14H470.9V.1h3.793V8.728L481.46.1h4.549l-7.458,9.139,8.776,10.845H482.6Z" transform="translate(-395.126)" fill="#ffffff"/><path d="M610.725,6.575c0,4.8-3.311,6.507-7.474,6.507h-3.89v7H595.6V.1h7.651C607.414.1,610.725,1.775,610.725,6.575Zm-3.858,0c0-1.515-.611-2.919-3.633-2.919h-3.874V9.51h3.89C606.256,9.526,606.867,8.122,606.867,6.575Z" transform="translate(-499.803)" fill="#ffffff"/><path d="M728.635,16.511v3.573H715.6V.1h3.793V16.511Z" transform="translate(-600.534)" fill="#ffffff"/><path d="M824.312,16.081h-8.567l-1.463,4H810.2L818.076.1h3.906l7.876,19.984h-4.083Zm-1.286-3.573-2.99-8.166-2.99,8.166Z" transform="translate(-679.974)" fill="#ffffff"/><path d="M972.455.1V20.084h-3.761l-9-13.525V20.084H955.9V.1h3.793l9,13.525V.1Z" transform="translate(-802.255)" fill="#ffffff"/><path d="M227.108,36.221h.08A6.111,6.111,0,1,0,221,30.11v.079h6.108Z" transform="translate(-185.348 -20.142)" fill="none"/><path d="M207.046,0A10.011,10.011,0,0,0,197,9.968v.08h3.857v-.08a6.188,6.188,0,1,1,6.188,6.14h-.08v3.828h.08a9.968,9.968,0,1,0,0-19.936Z" transform="translate(-165.203)" fill="#ffffff"/></g></svg>